# Blender v2.78 (sub 0) OBJ File: 'bird.blend'
# www.blender.org
mtllib bird.mtl
o Cube
v 16.538599 7.066884 -1.000000
v 16.538599 7.066884 1.000000
v 5.607134 6.804648 1.262235
v 5.607134 6.804648 -1.262235
v 16.538595 9.066884 -1.000001
v 16.538595 9.066884 1.000001
v 5.607132 9.329120 1.262235
v 5.607132 9.329120 -1.262235
v -8.890745 9.634068 -4.372411
v 22.886467 8.302446 -0.235563
v -8.890745 9.634068 4.372411
v 22.886467 8.302446 0.235563
v 22.886467 7.831322 -0.235562
v 6.248161 11.460299 -3.551227
v -11.731934 9.894432 -2.289711
v 22.886467 7.831322 0.235562
v 6.248161 11.460299 3.551227
v -11.731934 9.894432 2.289711
v -11.731934 6.327066 2.289711
v 6.248161 4.761200 3.551227
v 3.579876 9.695772 3.551227
v -11.731934 6.327066 -2.289711
v 3.579876 6.525726 3.551227
v -8.890745 6.770910 4.372411
v -14.039646 6.770910 19.686100
v -14.039646 9.634068 19.686100
v -1.569026 9.695772 19.103823
v 6.248161 4.761200 -3.551227
v -1.569026 6.525726 19.103823
v 3.579876 9.695772 -3.551227
v 19.748671 9.845093 1.778210
v 19.748676 6.288675 1.778209
v -15.370214 10.964529 24.303438
v -9.018047 9.381231 24.006844
v -15.370214 9.506121 24.303438
v -9.018047 10.995959 24.006844
v 3.579876 6.525726 -3.551227
v -8.890745 6.770910 -4.372411
v -11.731934 4.761200 3.551227
v -11.731934 11.460299 3.551227
v -24.534048 6.327066 6.194576
v -24.534048 9.894432 6.194576
v -14.039646 6.770910 -19.686100
v -16.598782 9.894432 2.289711
v -16.598782 6.327066 2.289711
v -14.039646 9.634068 -19.686100
v -24.534048 6.327066 0.000000
v -24.534048 9.894432 0.000000
v -24.534048 8.110749 0.000000
v -24.534048 6.327066 0.000000
v -24.534048 9.894432 0.000000
v -24.534048 8.110749 0.000000
v -24.534048 9.894432 3.282796
v -24.534048 6.327066 3.282796
v -17.818661 9.894432 1.069932
v -17.818661 6.327066 1.181575
v 16.538595 9.066884 0.000000
v 6.248161 11.460299 0.000000
v -11.731934 4.761200 0.000000
v 16.538599 7.066884 0.000000
v 5.607134 6.804648 0.000000
v 5.607132 9.329120 0.000000
v -11.731934 11.460299 0.000000
v 6.248161 4.761200 0.000000
v 19.748676 6.288675 0.000000
v 22.886467 7.831322 0.000000
v 22.886467 8.302446 0.000000
v 19.748671 9.845093 0.000000
v -11.731934 6.327066 0.000000
v -11.731934 9.894432 0.000000
v -17.818661 6.327066 0.000000
v -17.818661 9.894432 0.000000
v -1.569026 9.695772 -19.103823
v -1.569026 6.525726 -19.103823
v 19.748671 9.845093 -1.778210
v 19.748676 6.288675 -1.778209
v -15.370214 10.964529 -24.303438
v -9.018047 9.381231 -24.006844
v -15.370214 9.506121 -24.303438
v -9.018047 10.995959 -24.006844
v -11.731934 4.761200 -3.551227
v -11.731934 11.460299 -3.551227
v -24.534048 6.327066 -6.194576
v -24.534048 9.894432 -6.194576
v -16.598782 9.894432 -2.289711
v -16.598782 6.327066 -2.289711
v -24.534048 9.894432 -3.282796
v -24.534048 6.327066 -3.282796
v -17.818661 9.894432 -1.069932
v -17.818661 6.327066 -1.181575
v -24.581751 9.894432 0.000000
v -24.581751 9.894432 1.069932
v -24.581751 6.327066 1.181575
v -24.581751 6.327066 0.000000
v -24.581751 9.894432 -1.069932
v -24.581751 6.327066 -1.181575
vn -0.2356 0.9718 0.0000
vn 0.0000 1.0000 0.0000
vn 0.0240 -0.0000 0.9997
vn -0.0050 1.0000 0.0017
vn 0.0240 -0.0000 -0.9997
vn 1.0000 -0.0000 0.0000
vn 0.0466 0.0000 -0.9989
vn 0.5498 0.0000 -0.8353
vn 0.0258 0.2240 0.9742
vn 0.0246 -0.2136 0.9766
vn 0.0000 0.0000 1.0000
vn -0.2777 0.0000 0.9607
vn -0.2777 0.0000 -0.9607
vn 0.4412 0.8974 0.0000
vn 0.0246 -0.2136 -0.9766
vn -0.0200 -0.9998 -0.0067
vn 0.4412 0.0000 0.8974
vn 0.9493 0.0000 0.3143
vn -0.0050 1.0000 -0.0017
vn -0.9479 0.0000 -0.3187
vn 0.4412 0.0000 -0.8974
vn -0.2356 -0.0000 0.9718
vn 0.0000 0.0000 -1.0000
vn 0.0466 0.0000 0.9989
vn 0.5498 0.0000 0.8353
vn -0.0179 0.9594 -0.2816
vn -0.9609 0.0000 -0.2769
vn 0.0070 -0.8595 0.5111
vn -0.2356 -0.0000 -0.9718
vn -1.0000 0.0000 0.0000
vn 0.9493 0.0000 -0.3143
vn 0.4415 0.0000 0.8972
vn -0.9609 0.0000 0.2769
vn 0.0000 -1.0000 -0.0000
vn -0.0179 0.9594 0.2816
vn -0.3058 -0.0149 -0.9520
vn 0.0070 -0.8595 -0.5111
vn 0.0258 0.2240 -0.9742
vn 0.4412 -0.8974 0.0000
vn -0.9479 0.0000 0.3187
vn 0.0240 -0.9997 0.0000
vn -0.2356 -0.9718 0.0000
vn -0.0200 -0.9998 0.0067
vn 0.0240 0.9997 0.0000
vn 0.4415 0.0000 -0.8972
vn -0.3058 -0.0149 0.9520
vn 0.0000 0.0313 0.9995
vn 0.0000 0.0313 -0.9995
usemtl Material
s off
f 57//1 6//1 31//1 68//1
f 44//2 55//2 53//2 42//2
f 2//3 6//3 7//3 3//3
f 85//2 84//2 87//2 89//2
f 30//4 73//4 46//4 9//4
f 1//5 4//5 8//5 5//5
f 66//6 67//6 12//6 16//6
f 80//7 78//7 79//7 77//7
f 66//6 13//6 10//6 67//6
f 74//8 78//8 80//8 73//8
f 57//1 68//1 75//1 5//1
f 11//9 21//9 17//9 40//9
f 23//10 24//10 39//10 20//10
f 21//11 23//11 20//11 17//11
f 24//12 11//12 40//12 39//12
f 38//13 81//13 82//13 9//13
f 68//14 31//14 12//14 67//14
f 37//15 28//15 81//15 38//15
f 24//16 23//16 29//16 25//16
f 31//17 32//17 16//17 12//17
f 23//18 21//18 27//18 29//18
f 21//19 11//19 26//19 27//19
f 11//20 24//20 25//20 26//20
f 75//21 10//21 13//21 76//21
f 6//22 2//22 32//22 31//22
f 30//23 14//23 28//23 37//23
f 36//24 33//24 35//24 34//24
f 29//25 27//25 36//25 34//25
f 27//26 26//26 33//26 36//26
f 26//27 25//27 35//27 33//27
f 25//28 29//28 34//28 35//28
f 5//29 75//29 76//29 1//29
f 18//30 19//30 39//30 40//30
f 37//31 74//31 73//31 30//31
f 70//30 18//30 40//30 63//30
f 45//32 44//32 42//32 41//32
f 46//33 77//33 79//33 43//33
f 69//34 19//34 45//34 56//34 71//34
f 19//11 18//11 44//11 45//11
f 73//35 80//35 77//35 46//35
f 54//34 56//34 45//34 41//34
f 42//30 53//30 54//30 41//30
f 55//36 56//36 54//36 53//36
f 18//2 70//2 72//2 55//2 44//2
f 43//37 79//37 78//37 74//37
f 68//14 67//14 10//14 75//14
f 9//38 82//38 14//38 30//38
f 32//39 65//39 66//39 16//39
f 9//40 46//40 43//40 38//40
f 3//41 61//41 60//41 2//41
f 2//42 60//42 65//42 32//42
f 39//34 59//34 64//34 20//34
f 19//30 69//30 59//30 39//30
f 17//2 58//2 63//2 40//2
f 20//6 64//6 58//6 17//6
f 38//43 43//43 74//43 37//43
f 6//44 57//44 62//44 7//44
f 15//30 82//30 81//30 22//30
f 70//30 63//30 82//30 15//30
f 86//45 83//45 84//45 85//45
f 69//34 71//34 90//34 86//34 22//34
f 22//23 86//23 85//23 15//23
f 88//34 83//34 86//34 90//34
f 84//30 83//30 88//30 87//30
f 89//46 87//46 88//46 90//46
f 15//2 85//2 89//2 72//2 70//2
f 76//39 13//39 66//39 65//39
f 4//41 1//41 60//41 61//41
f 1//42 76//42 65//42 60//42
f 81//34 28//34 64//34 59//34
f 22//30 81//30 59//30 69//30
f 14//2 82//2 63//2 58//2
f 28//6 14//6 58//6 64//6
f 5//44 8//44 62//44 57//44
f 90//34 71//34 94//34 96//34
f 92//30 91//30 95//30 96//30 94//30 93//30
f 56//47 55//47 92//47 93//47
f 89//48 90//48 96//48 95//48
f 72//2 89//2 95//2 91//2
f 55//2 72//2 91//2 92//2
f 71//34 56//34 93//34 94//34
l 52 49
l 48 51
l 50 47
