# Blender v2.78 (sub 0) OBJ File: 'pillar_floating.blend'
# www.blender.org
mtllib pillar_floating.mtl
o Cube
v 0.139976 -0.402232 0.139976
v 0.139976 -0.402232 -0.139975
v -0.139976 -0.402232 -0.139975
v -0.139976 -0.402232 0.139976
v 0.139976 0.498660 0.139976
v 0.139976 0.498660 -0.139975
v -0.139976 0.498660 -0.139975
v -0.139976 0.498660 0.139976
v 0.139976 0.498660 0.000000
v -0.000000 0.498660 0.139976
v -0.000000 0.498660 -0.139975
v -0.139976 0.498660 0.000000
v -0.000000 0.881577 0.000000
v 0.139976 -0.402232 0.000000
v -0.000000 -0.402232 0.139976
v -0.000000 -0.402232 -0.139975
v -0.139976 -0.402232 0.000000
v -0.000000 -0.785149 0.000000
vn 0.0000 -0.3433 0.9392
vn 1.0000 -0.0000 -0.0000
vn -0.0000 0.0000 -1.0000
vn -0.9392 0.3433 0.0000
vn 0.0000 -0.3433 -0.9392
vn 0.9392 0.3433 -0.0000
vn 0.0000 0.3433 0.9392
vn 0.0000 0.3433 -0.9392
vn -1.0000 0.0000 0.0000
vn -0.9392 -0.3433 0.0000
vn 0.9392 -0.3433 0.0000
vn 0.0000 -0.0000 1.0000
usemtl Material
s off
f 7//1 11//1 6//1 13//1
f 3//2 7//2 12//2 8//2 4//2 17//2
f 5//3 1//3 15//3 4//3 8//3 10//3
f 2//4 18//4 1//4 14//4
f 8//5 13//5 5//5 10//5
f 4//6 18//6 3//6 17//6
f 3//7 18//7 2//7 16//7
f 4//8 15//8 1//8 18//8
f 1//9 5//9 9//9 6//9 2//9 14//9
f 6//10 9//10 5//10 13//10
f 8//11 12//11 7//11 13//11
f 2//12 6//12 11//12 7//12 3//12 16//12
